<?xml version="1.0" standalone="no"?>
<!DOCTYPE svg PUBLIC "-//W3C//DTD SVG 1.1//EN" "http://www.w3.org/Graphics/SVG/1.1/DTD/svg11.dtd" >
<!--
2013-9-30: Created.
-->
<svg>
<metadata>
Created by iconfont
</metadata>
<defs>

<font id="iconfont" horiz-adv-x="1024" >
  <font-face
    font-family="iconfont"
    font-weight="500"
    font-stretch="normal"
    units-per-em="1024"
    ascent="896"
    descent="-128"
  />
    <missing-glyph />
    
    <glyph glyph-name="book" unicode="&#58880;" d="M274.641569 530.286738l393.19108 0c16.246009 0 29.391401 13.160741 29.391401 29.391401 0 16.217357-13.145391 29.391401-29.391401 29.391401L274.641569 589.069539c-16.23066 0-29.391401-13.175067-29.391401-29.391401C245.250168 543.447479 258.410909 530.286738 274.641569 530.286738zM274.641569 415.218002l393.19108 0c16.246009 0 29.391401 13.160741 29.391401 29.391401 0 16.217357-13.145391 29.391401-29.391401 29.391401L274.641569 474.000803c-16.23066 0-29.391401-13.175067-29.391401-29.391401C245.250168 428.378743 258.410909 415.218002 274.641569 415.218002zM274.641569 300.148243l393.19108 0c16.246009 0 29.391401 13.160741 29.391401 29.391401 0 16.21838-13.145391 29.393447-29.391401 29.393447L274.641569 358.933091c-16.23066 0-29.391401-13.175067-29.391401-29.393447C245.250168 313.310008 258.410909 300.148243 274.641569 300.148243zM274.641569 185.080531l393.19108 0c16.246009 0 29.391401 13.158694 29.391401 29.391401 0 16.217357-13.145391 29.392424-29.391401 29.392424L274.641569 243.864356c-16.23066 0-29.391401-13.175067-29.391401-29.392424C245.250168 198.240249 258.410909 185.080531 274.641569 185.080531zM274.641569 70.011796l202.145953 0c16.246009 0 29.391401 13.158694 29.391401 29.391401 0 16.217357-13.145391 29.391401-29.391401 29.391401L274.641569 128.794597c-16.23066 0-29.391401-13.174044-29.391401-29.391401C245.250168 83.17049 258.410909 70.011796 274.641569 70.011796zM811.862997 833.402313 277.914102 833.402313c-24.311709 0-44.087101-19.790742-44.087101-44.087101l0-72.890101-29.564339 0c-24.311709 0-44.087101-19.776416-44.087101-44.087101l0-689.423899c0-24.304546 19.775392-44.079938 44.087101-44.079938l533.947871 0c24.312732 0 44.088124 19.775392 44.088124 44.079938l0 72.890101 29.564339 0c24.311709 0 44.087101 19.775392 44.087101 44.087101L855.950098 789.314189C855.950098 813.611571 836.174706 833.402313 811.862997 833.402313zM723.515856-2.391211 218.958362-2.391211l0 660.032498 504.557494 0L723.515856-2.391211zM797.167297 114.587014l-14.867616 0L782.299681 672.336988c0 24.310685-19.775392 44.087101-44.088124 44.087101L292.609803 716.424088l0 58.1944 504.556471 0L797.166273 114.587014z"  horiz-adv-x="1024" />

    
    <glyph glyph-name="trash" unicode="&#58920;" d="M803.08 726.22l-129.41 0 0 23c-0.038 12.985-10.555 23.502-23.54 23.54l-286.92 0c-12.985-0.038-23.502-10.555-23.54-23.54l0-23-118.75 0c-22.87 0-41.58-21.6-41.58-48s18.71-48 41.58-48l582.16 0c22.87 0 41.58 21.6 41.58 48s-18.66 48-41.58 48zM233.36 71.45c0.126-42.037 34.173-76.084 76.21-76.21l404.86 0c42.037 0.126 76.084 34.173 76.21 76.21l0 504.25-557.28 0 0-504.25zM585.67 477.81c0 22.87 21.6 41.58 48 41.58s48-18.71 48-41.58l0-377.42c0-22.87-21.6-41.58-48-41.58s-48 18.71-48 41.58l0 377.42zM342.34 477.81c0 22.87 21.6 41.58 48 41.58s48-18.71 48-41.58l0-377.42c0-22.87-21.6-41.58-48-41.58s-48 18.71-48 41.58l0 377.42z"  horiz-adv-x="1024" />

    
    <glyph glyph-name="Clock" unicode="&#58881;" d="M471.85 359.111a47.634 47.634 0 0 0-6.196 23.609V622.618c0 26.595 21.312 48.155 48.02 48.155 26.518 0 48.015-21.533 48.015-48.155v-219.961L666.69 297.659c18.675-18.68 18.744-48.891-0.137-67.772-18.753-18.752-49.238-18.67-67.771-0.137L481.342 347.19a48.509 48.509 0 0 0-9.492 11.921z m41.823-360.592c212.156 0 384.145 171.989 384.145 384.145 0 212.16-171.989 384.148-384.145 384.148-212.16 0-384.148-171.988-384.148-384.148 0-212.156 171.988-384.145 384.148-384.145z m0 0"  horiz-adv-x="1024" />

    
    <glyph glyph-name="account-box-outline" unicode="&#58882;" d="M810.666667 85.333333H213.333333V682.666667h597.333334m0 85.333333H213.333333a85.333333 85.333333 0 0 1-85.333333-85.333333v-597.333334a85.333333 85.333333 0 0 1 85.333333-85.333333h597.333334a85.333333 85.333333 0 0 1 85.333333 85.333333V682.666667a85.333333 85.333333 0 0 1-85.333333 85.333333m-106.666667-565.333333c0 64-128 96-192 96s-192-32-192-96V170.666667h384M512 373.333333A96 96 0 0 1 608 469.333333 96 96 0 0 1 512 565.333333 96 96 0 0 1 416 469.333333 96 96 0 0 1 512 373.333333z"  horiz-adv-x="1024" />

    
    <glyph glyph-name="account-box" unicode="&#58883;" d="M256 170.666667c0 85.333333 170.666667 132.266667 256 132.266666s256-46.933333 256-132.266666v-42.666667H256m384 384a128 128 0 0 0-128-128 128 128 0 0 0-128 128 128 128 0 0 0 128 128 128 128 0 0 0 128-128M128 682.666667v-597.333334a85.333333 85.333333 0 0 1 85.333333-85.333333h597.333334a85.333333 85.333333 0 0 1 85.333333 85.333333V682.666667a85.333333 85.333333 0 0 1-85.333333 85.333333H213.333333a85.333333 85.333333 0 0 1-85.333333-85.333333z"  horiz-adv-x="1024" />

    
    <glyph glyph-name="arrow-left" unicode="&#58924;" d="M853.333333 426.666667v-85.333334H341.333333l234.666667-234.666666-60.586667-60.586667L177.493333 384l337.92 337.92L576 661.333333 341.333333 426.666667h512z"  horiz-adv-x="1024" />

    
    <glyph glyph-name="arrow-right" unicode="&#58929;" d="M170.666667 426.666667v-85.333334h512l-234.666667-234.666666 60.586667-60.586667L846.506667 384l-337.92 337.92L448 661.333333 682.666667 426.666667H170.666667z"  horiz-adv-x="1024" />

    
    <glyph glyph-name="book-multiple" unicode="&#58979;" d="M810.666667 128H384a85.333333 85.333333 0 0 0-85.333333 85.333333V725.333333a85.333333 85.333333 0 0 0 85.333333 85.333334h42.666667v-213.333334l85.333333 64L597.333333 597.333333V810.666667h213.333334a85.333333 85.333333 0 0 0 85.333333-85.333334v-512a85.333333 85.333333 0 0 0-85.333333-85.333333m-85.333334-85.333333v-85.333334H213.333333a85.333333 85.333333 0 0 0-85.333333 85.333334V640h85.333333v-597.333333h512z"  horiz-adv-x="1024" />

    
    <glyph glyph-name="book-open" unicode="&#58980;" d="M554.666667 384h298.666666v-64h-298.666666m0 170.666667h298.666666V426.666667h-298.666666m0-149.333334h298.666666V213.333333h-298.666666m341.333333 512H128a85.333333 85.333333 0 0 1-85.333333-85.333333v-554.666667a85.333333 85.333333 0 0 1 85.333333-85.333333h768a85.333333 85.333333 0 0 1 85.333333 85.333333V640a85.333333 85.333333 0 0 1-85.333333 85.333333m0-640h-384V640h384"  horiz-adv-x="1024" />

    
    <glyph glyph-name="chart-pie" unicode="&#59034;" d="M896 426.666667h-341.333333V768a341.333333 341.333333 0 0 0 341.333333-341.333333m-85.333333-85.333334a342.186667 342.186667 0 0 0-152.32-284.586666L494.08 341.333333H810.666667m-341.333334-341.333333a342.186667 342.186667 0 0 0-284.586666 152.32l276.906666 160 159.573334-276.906667c-45.226667-22.613333-97.28-35.413333-151.893334-35.413333m-341.333333 341.333333a341.333333 341.333333 0 0 0 341.333333 341.333334v-316.586667l-305.92-176.64A340.096 340.096 0 0 0 128 341.333333z"  horiz-adv-x="1024" />

    
    <glyph glyph-name="chevron-double-left" unicode="&#59048;" d="M785.493333 579.84L725.333333 640l-256-256 256-256 60.16 60.16L590.08 384l195.413333 195.84m-256 0L469.333333 640l-256-256 256-256 60.16 60.16L334.08 384l195.413333 195.84z"  horiz-adv-x="1024" />

    
    <glyph glyph-name="cloud-upload" unicode="&#59069;" d="M597.333333 341.333333v-170.666666h-170.666666v170.666666H298.666667l213.333333 213.333334 213.333333-213.333334m100.266667 126.72A319.573333 319.573333 0 0 1 512 725.333333C388.693333 725.333333 281.6 655.36 228.266667 553.386667A256.170667 256.170667 0 0 1 0 298.666667a256 256 0 0 1 256-256h554.666667a213.333333 213.333333 0 0 1 213.333333 213.333333c0 112.64-87.466667 203.946667-198.4 212.053333z"  horiz-adv-x="1024" />

    
    <glyph glyph-name="database" unicode="&#59116;" d="M512 768C323.413333 768 170.666667 691.626667 170.666667 597.333333s152.746667-170.666667 341.333333-170.666666 341.333333 76.373333 341.333333 170.666666-152.746667 170.666667-341.333333 170.666667M170.666667 512v-128c0-94.293333 152.746667-170.666667 341.333333-170.666667s341.333333 76.373333 341.333333 170.666667V512c0-94.293333-152.746667-170.666667-341.333333-170.666667s-341.333333 76.373333-341.333333 170.666667m0-213.333333v-128c0-94.293333 152.746667-170.666667 341.333333-170.666667s341.333333 76.373333 341.333333 170.666667v128c0-94.293333-152.746667-170.666667-341.333333-170.666667s-341.333333 76.373333-341.333333 170.666667z"  horiz-adv-x="1024" />

    
    <glyph glyph-name="information" unicode="&#59320;" d="M554.666667 512h-85.333334V597.333333h85.333334m0-426.666666h-85.333334v256h85.333334m-42.666667 384A426.666667 426.666667 0 0 1 85.333333 384a426.666667 426.666667 0 0 1 426.666667-426.666667 426.666667 426.666667 0 0 1 426.666667 426.666667A426.666667 426.666667 0 0 1 512 810.666667z"  horiz-adv-x="1024" />

    
    <glyph glyph-name="logout" unicode="&#58938;" d="M413.538462-59.076923v59.076923c0 15.753846-13.784615 29.538462-29.538462 29.538462h-196.923077c-15.753846 0-29.538462 13.784615-29.538461 29.538461v649.846154C157.538462 724.676923 171.323077 738.461538 187.076923 738.461538h196.923077c15.753846 0 29.538462 13.784615 29.538462 29.538462v59.076923c0 15.753846-13.784615 29.538462-29.538462 29.538462H118.153846C74.830769 856.615385 39.384615 821.169231 39.384615 777.846154v-787.692308c0-43.323077 35.446154-78.769231 78.769231-78.769231h265.846154c15.753846 0 29.538462 13.784615 29.538462 29.538462zM976.738462 364.307692c11.815385 11.815385 11.815385 29.538462 0 41.353846L710.892308 671.507692c-11.815385 11.815385-29.538462 11.815385-41.353846 0l-41.353847-41.353846c-11.815385-11.815385-11.815385-29.538462 0-41.353846l110.276923-110.276923c11.815385-11.815385 3.938462-33.476923-13.784615-33.476923H305.230769c-15.753846 0-29.538462-11.815385-29.538461-27.569231v-59.076923c0-15.753846 13.784615-31.507692 29.538461-31.507692h417.476923c17.723077 0 25.6-21.661538 13.784616-33.476923l-110.276923-110.276923c-11.815385-11.815385-11.815385-29.538462 0-41.353847l41.353846-41.353846c11.815385-11.815385 29.538462-11.815385 41.353846 0L976.738462 364.307692z"  horiz-adv-x="1024" />

    
    <glyph glyph-name="light" unicode="&#58897;" d="M469.3-64h85.3v42.7h-85.3V-64zM384 106.7h256v42.7H384v-42.7zM384 21.3h256V64H384v-42.7zM810.6 533.4C810.6 698.3 676.9 832 512 832c-164.9 0-298.6-133.7-298.6-298.6 0-119.1 69.9-221.5 170.7-269.5V192h256v71.9c100.7 48 170.5 150.4 170.5 269.5"  horiz-adv-x="1024" />

    
    <glyph glyph-name="edit" unicode="&#58993;" d="M507.428571 219.428571l66.304 66.304-86.857142 86.857143-66.304-66.304V274.285714H475.428571v-54.857143h32zM758.857143 630.857143c-5.156571 5.156571-13.714286 4.571429-18.870857-0.585143l-200.009143-200.009143c-5.156571-5.156571-5.705143-13.714286-0.585143-18.870857s13.714286-4.571429 18.870857 0.585143l200.009143 200.009143c5.156571 5.156571 5.705143 13.714286 0.585143 18.870857zM804.571429 291.437714V182.857143c0-90.843429-73.728-164.571429-164.571429-164.571429h-475.428571A164.644571 164.644571 0 0 0 0 182.857143v475.428571C0 749.129143 73.728 822.857143 164.571429 822.857143h475.428571c22.857143 0 45.714286-4.571429 66.852571-14.299429 5.156571-2.304 9.142857-7.424 10.276572-13.129143a17.956571 17.956571 0 0 0-5.156572-16.566857l-28.013714-28.013714a17.225143 17.225143 0 0 0-18.285714-4.571429A98.633143 98.633143 0 0 1 639.963429 749.714286h-475.428572a91.684571 91.684571 0 0 1-91.428571-91.428572v-475.428571c0-50.285714 41.142857-91.428571 91.428571-91.428572h475.428572c50.285714 0 91.428571 41.142857 91.428571 91.428572v72.009143c0 4.571429 1.718857 9.142857 5.156571 12.580571l36.571429 36.571429c5.705143 5.705143 13.129143 6.838857 20.004571 3.986285s11.446857-9.142857 11.446858-16.566857zM749.714286 713.142857L914.285714 548.571429 530.285714 164.571429H365.714286v164.571428z m253.732571-75.446857L950.893714 585.142857l-164.571428 164.571429 52.553143 52.553143a55.552 55.552 0 0 0 77.714285 0l86.857143-86.857143a55.552 55.552 0 0 0 0-77.714286z"  horiz-adv-x="1024" />

    
    <glyph glyph-name="key" unicode="&#59361;" d="M608 784c-167.9 0-304-136.1-304-304 0-70.3 23.9-135 63.9-186.5l-41.1-41.1-62.3 62.3c-3.1 3.1-8.2 3.1-11.4 0l-39.8-39.8c-3.1-3.1-3.1-8.2 0-11.4l62.3-62.3-44.9-44.9-62.3 62.3c-3.1 3.1-8.2 3.1-11.4 0l-39.8-39.8c-3.1-3.1-3.1-8.2 0-11.4l62.3-62.3-65.3-65.3c-3.1-3.1-3.1-8.2 0-11.3l42.3-42.3c3.1-3.1 8.2-3.1 11.3 0l253.6 253.6C473 199.9 537.7 176 608 176c167.9 0 304 136.1 304 304S775.9 784 608 784z m161.2-465.2C726.2 275.7 668.9 252 608 252c-60.9 0-118.2 23.7-161.2 66.8-43.1 43-66.8 100.3-66.8 161.2 0 60.9 23.7 118.2 66.8 161.2 43 43.1 100.3 66.8 161.2 66.8 60.9 0 118.2-23.7 161.2-66.8 43.1-43 66.8-100.3 66.8-161.2 0-60.9-23.7-118.2-66.8-161.2z"  horiz-adv-x="1024" />

    
    <glyph glyph-name="menu" unicode="&#58925;" d="M332.6 427.1h582c24.7 0 44.8-20 44.8-44.8 0-24.7-20-44.8-44.8-44.8h-582c-24.7 0-44.8 20-44.8 44.8 0 24.7 20 44.8 44.8 44.8zM108.7 427.1h44.8c24.7 0 44.8-20 44.8-44.8 0-24.7-20-44.8-44.8-44.8h-44.8c-24.7 0-44.8 20-44.8 44.8 0.1 24.7 20.1 44.8 44.8 44.8zM108.7 158.5h805.8c24.7 0 44.8-20 44.8-44.8 0-24.7-20-44.8-44.8-44.8H108.7C84 68.9 64 89 64 113.7c0 24.7 20 44.8 44.7 44.8zM108.7 695.7h805.8c24.7 0 44.8-20 44.8-44.8 0-24.7-20-44.8-44.8-44.8H108.7c-24.7 0-44.8 20-44.8 44.8 0.1 24.7 20.1 44.8 44.8 44.8z"  horiz-adv-x="1024" />

    
    <glyph glyph-name="place-of-worship-" unicode="&#58930;" d="M512 896l-136.533333-136.533333v-136.533334h273.066666V759.466667l-136.533333 136.533333z m-136.533333-307.2L273.066667 486.4h477.866666L648.533333 588.8h-273.066666zM136.533333 452.266667a68.266667 68.266667 0 0 1-68.266666-68.266667V8.533333h136.533333V384a68.266667 68.266667 0 0 1-68.266667 68.266667z m136.533334 0V8.533333h477.866666V452.266667H273.066667z m614.4 0a68.266667 68.266667 0 0 1-68.266667-68.266667V8.533333h136.533333V384a68.266667 68.266667 0 0 1-68.266666 68.266667z"  horiz-adv-x="1024" />

    
    <glyph glyph-name="Buttons" unicode="&#58927;" d="M260.266667-42.666667c45.5168 1.1264 84.48 17.629867 116.906666 49.493334 32.989867 33.570133 49.493333 73.9328 49.493334 121.173333s-16.503467 87.330133-49.493334 120.32c-32.426667 32.426667-71.406933 49.220267-116.906666 50.346667H768c47.240533 0 87.313067-16.503467 120.32-49.493334C921.9072 215.6032 938.666667 175.240533 938.666667 128s-16.759467-87.330133-50.346667-120.32C855.313067-25.9072 815.240533-42.666667 768-42.666667H260.266667zM260.266667-59.733333H256c-51.694933 0-96.529067 18.619733-133.239467 55.3472C86.596267 31.761067 68.266667 76.305067 68.266667 128c0 51.6096 18.295467 96.4096 54.391466 133.137067C159.5904 297.437867 204.373333 315.733333 256 315.733333h512c51.677867 0 96.221867-18.3296 132.386133-54.493866C937.1136 224.529067 955.733333 179.694933 955.733333 128c0-51.7632-18.670933-96.3584-55.4496-132.5056C864.341333-41.079467 819.746133-59.733333 768-59.733333H260.266667z m104.772266 34.133333H768c42.8544 0 78.2336 14.7968 108.151467 45.243733C906.8032 49.7664 921.6 85.128533 921.6 128c0 42.922667-14.830933 78.592-45.346133 109.1072C846.301867 267.042133 810.9056 281.6 768 281.6H364.373333c8.669867-6.229333 16.964267-13.294933 24.8832-21.213867C425.403733 224.238933 443.733333 179.694933 443.733333 128c0-51.6096-18.295467-96.4096-54.391466-133.137067-7.748267-7.611733-15.837867-14.421333-24.302934-20.462933zM256 281.6c-42.9568 0-78.677333-14.574933-109.2096-44.5952C116.992 206.660267 102.4 170.9568 102.4 128c0-42.922667 14.557867-78.318933 44.4928-108.253867C177.408-10.769067 213.0944-25.6 256-25.6h4.0448c41.3184 1.058133 75.7248 15.6672 105.1648 44.5952C395.008 49.339733 409.6 85.0432 409.6 128c0 42.922667-14.557867 78.318933-44.4928 108.253867-29.44 29.44-63.7952 44.288-105.0624 45.346133H256z m512 170.666667H256c-51.677867 0-96.512 18.619733-133.239467 55.3472C86.596267 543.761067 68.266667 588.305067 68.266667 640c0 51.6096 18.295467 96.4096 54.391466 133.137067C159.5904 809.437867 204.3904 827.733333 256 827.733333h512c51.677867 0 96.221867-18.3296 132.386133-54.493866C937.1136 736.529067 955.733333 691.694933 955.733333 640c0-51.780267-18.670933-96.3584-55.4496-132.488533C864.324267 470.920533 819.746133 452.266667 768 452.266667z m-4.0448 34.133333H768c42.8544 0 78.216533 14.7968 108.151467 45.243733C906.8032 561.7664 921.6 597.128533 921.6 640c0 42.9056-14.830933 78.592-45.346133 109.1072C846.301867 779.042133 810.9056 793.6 768 793.6h-4.0448c-41.250133-1.058133-75.6224-15.616-105.045333-44.4928C628.957867 718.592 614.4 682.9056 614.4 640s14.557867-78.318933 44.4928-108.2368c29.44-29.457067 63.812267-44.305067 105.0624-45.3632zM256 793.6c-42.9568 0-78.677333-14.592-109.2096-44.5952C116.992 718.677333 102.4 682.9568 102.4 640c0-42.9056 14.557867-78.318933 44.4928-108.253867C177.408 501.230933 213.0944 486.4 256 486.4h403.626667c-8.669867 6.229333-16.964267 13.312-24.866134 21.213867C598.596267 543.761067 580.266667 588.305067 580.266667 640c0 51.626667 18.295467 96.4096 54.408533 133.137067l0.2048 0.2048c7.645867 7.5264 15.6672 14.2848 24.029867 20.258133H256z"  horiz-adv-x="1024" />

    
    <glyph glyph-name="star" unicode="&#58887;" d="M512 677.0688l63.9488-129.536a124.5184 124.5184 0 0 1 93.696-68.096l142.9504-20.7872-103.4752-100.8128a124.3648 124.3648 0 0 1-35.84-110.1312l24.3712-142.3872-128 67.1744a124.2112 124.2112 0 0 1-115.8656 0l-128-67.1744 24.4224 142.3872a124.6208 124.6208 0 0 1-35.84 110.1824L210.944 458.6496l143.0528 20.8384a124.3136 124.3136 0 0 1 93.5936 68.0448l63.9488 129.536m0 167.7312a13.7216 13.7216 0 0 1-12.3904-7.68L374.1696 583.7824a42.496 42.496 0 0 0-32.0512-23.2448l-279.552-40.6528a13.7728 13.7728 0 0 1-7.6288-23.5008l202.2912-197.1712a42.7008 42.7008 0 0 0 12.2368-37.6832L221.696-16.896a13.824 13.824 0 0 1 13.568-16.1792 14.1824 14.1824 0 0 1 6.4512 1.6384l250.0096 131.4304a42.3936 42.3936 0 0 0 39.6288 0l250.0096-131.4304a14.1824 14.1824 0 0 1 6.4512-1.6384 13.824 13.824 0 0 1 13.568 16.1792l-47.7696 278.4256a42.7008 42.7008 0 0 0 12.2368 37.6832l202.2912 197.1712a13.7728 13.7728 0 0 1-7.6288 23.5008l-279.552 40.6528a42.496 42.496 0 0 0-32.0512 23.2448L523.9296 837.12A13.7216 13.7216 0 0 1 511.5392 844.8z"  horiz-adv-x="1024" />

    
    <glyph glyph-name="yes" unicode="&#58981;" d="M925.866667 627.2c-17.066667 17.066667-42.666667 17.066667-59.733334 0L426.666667 187.733333l-183.466667 183.466667c-17.066667 17.066667-42.666667 12.8-59.733333-4.266667-17.066667-17.066667-17.066667-42.666667 0-59.733333l213.333333-213.333333c17.066667-17.066667 42.666667-17.066667 59.733333 0l469.333334 469.333333c17.066667 21.333333 17.066667 46.933333 0 64z"  horiz-adv-x="1024" />

    
    <glyph glyph-name="scenes-fill" unicode="&#59294;" d="M832 266.666667V106.666667a64 64 0 0 0-64-64H234.666667a64 64 0 0 0-64 64v160h661.333333zM788.352 724.138667l38.656-144.256-419.285333-109.824h-0.64l-0.064-0.213334-1.877334-0.490666h1.664l-53.824-137.813334 2.24-0.853333H170.666667L170.666667 469.333333h0.085333l-21.781333 83.968a64 64 0 0 0 45.376 77.909334l515.626666 138.176a64 64 0 0 0 78.378667-45.248zM832 469.333333v-138.666666H613.546667l55.68 138.666666H832z m-357.888 0.042667h126.144l-55.274667-137.813333 2.24-0.874667h-126.08l52.970667 138.666667zM726.528 707.562667l-515.626667-138.154667 20.629334-79.424 516.992 135.488-21.973334 82.090667z"  horiz-adv-x="1024" />

    
    <glyph glyph-name="people" unicode="&#58958;" d="M384 426.666667a170.666667 170.666667 0 1 1-170.666667 170.666666 170.666667 170.666667 0 0 1 170.666667-170.666666zM725.333333 341.333333a128 128 0 1 1-128 128 128 128 0 0 1 128-128zM896 42.666667a42.666667 42.666667 0 0 1 42.666667 42.666666 213.333333 213.333333 0 0 1-343.893334 168.533334A298.666667 298.666667 0 0 1 85.333333 42.666667a42.666667 42.666667 0 0 1 42.666667-42.666667h512a42.666667 42.666667 0 0 1 42.666667 42.666667"  horiz-adv-x="1024" />

    
    <glyph glyph-name="star1" unicode="&#59027;" d="M749.226667 0a42.666667 42.666667 0 0 0-19.626667 4.693333L512 118.613333l-217.6-113.92a42.666667 42.666667 0 0 0-61.866667 45.226667l42.666667 240.213333-175.786667 170.666667a42.666667 42.666667 0 0 0-10.666666 42.666667 42.666667 42.666667 0 0 0 34.56 29.013333l243.2 35.413333 107.093333 218.88a42.666667 42.666667 0 0 0 76.8 0l108.373333-218.453333 243.2-35.413333a42.666667 42.666667 0 0 0 34.56-29.013334 42.666667 42.666667 0 0 0-10.666666-42.666666l-175.786667-170.666667 42.666667-240.213333a42.666667 42.666667 0 0 0-17.066667-42.666667 42.666667 42.666667 0 0 0-26.453333-7.68z"  horiz-adv-x="1024" />

    
    <glyph glyph-name="place" unicode="&#58918;" d="M846.222222 375.466667l-42.666666 36.977777a166.4 166.4 0 0 1 42.666666 113.777778 170.666667 170.666667 0 0 1-170.666666 170.666667 166.4 166.4 0 0 1-167.822223-142.222222l-56.888889 8.533333a224.142222 224.142222 0 0 0 224.711112 190.577778 227.555556 227.555556 0 0 0 227.555555-227.555556 205.084444 205.084444 0 0 0-56.888889-150.755555zM123.733333 241.777778a25.6 25.6 0 0 0-14.222222 2.844444 28.444444 28.444444 0 0 0-11.377778 39.822222l250.311111 455.111112a28.444444 28.444444 0 0 0 22.755556 14.222222 29.866667 29.866667 0 0 0 25.6-14.222222l224.711111-358.4 108.088889 133.688888a28.444444 28.444444 0 0 0 45.511111 0l153.6-219.022222a28.444444 28.444444 0 0 0-45.511111-34.133333l-130.844444 187.733333-108.088889-133.688889a25.884444 25.884444 0 0 0-22.755556-11.377777 28.444444 28.444444 0 0 0-22.755555 14.222222L376.888889 668.444444l-227.555556-412.444444a29.866667 29.866667 0 0 0-25.6-14.222222zM920.177778 122.311111H137.955556a28.444444 28.444444 0 1 0 0 56.888889h782.222222a26.737778 26.737778 0 0 0 28.444444-28.444444 28.444444 28.444444 0 0 0-28.444444-28.444445zM834.844444 8.533333h-312.888888a28.444444 28.444444 0 0 0 0 56.888889h312.888888a26.737778 26.737778 0 0 0 28.444445-28.444444 28.444444 28.444444 0 0 0-28.444445-28.444445z"  horiz-adv-x="1024" />

    
    <glyph glyph-name="time6" unicode="&#59090;" d="M869.5 164.9s-52.4 40.4-69.9 91.7c-19.7 57.9-14.4 142.9-29.5 211.5C742.7 592.6 700.3 675 605.7 724c0.5-0.2-12.1 4.7-33 9.4v33.9c0 35.7-29 64.7-64.7 64.7s-64.7-28.9-64.7-64.7V734c-55.1-12.9-114.1-46.5-159.1-122.2-46.2-77.7-59.4-176.6-67.9-251.3-9.6-84.8-11-127.2-40.2-168.3-20.3-28.5-55-48.4-69.3-73.3-9.7-16.9-6.5-39.5-6.5-39.5s16-70.7 99.9-100.1c115.1-40.5 308-43.4 308-43.4s130.1 6.3 220.6 28.2c133.5 32.3 174 70.5 175.6 72.3 9.8 11 19.3 31.8 19.6 44.7 1 41.1-54.5 83.8-54.5 83.8zM719.7 16c-102.2-22.9-227.2-19.9-237.2-20.2-45.1-1-96.7 3.3-96.7 3.3s-110.2 14.8-171.3 40.6c-51.2 21.6-43 72.4-2.4 92 26.4 12.7 159.1 45.3 360.5 34 109.5-6.1 209.6-33.6 209.6-33.6s40.9-13.6 52.4-33.6c7-12.1-1.1-57.1-114.9-82.5zM505.5 127c-38.4 0-69.5-20.2-69.5-45.2 0-25 31.1-45.3 69.5-45.3s69.5 20.3 69.5 45.3c0.1 24.9-31.1 45.2-69.5 45.2z"  horiz-adv-x="1024" />

    
    <glyph glyph-name="time8" unicode="&#59091;" d="M652.6 361.8c1 3.6 1.5 7.4 1.5 11.2v22c0 3.9-0.5 7.6-1.5 11.2 102 38.8 153.5 128.6 154.5 269.4 0.2 24.7-4.3 55-9.6 81.9 2.2 4.4 3.4 9.4 3.4 14.6v16.4c0 12.5-7 23.4-17.4 28.9-1.7 6.3-2.8 10-2.8 10l-535 4.6s-1.6-5.2-4.1-14c-11-5.3-18.6-16.5-18.6-29.5v-16.4c0-5.4 1.3-10.6 3.7-15.1-5.3-25.8-9.7-54-9.9-77.3-1-142.5 50.6-233.5 154.6-273-1-3.7-1.6-7.7-1.6-11.7v-21.9c0-4.1 0.6-8 1.6-11.7-104.1-39.5-155.6-130.5-154.6-273 0.2-23.3 4.6-51.6 9.9-77.3-2.3-4.5-3.7-9.6-3.7-15.1v-16.5c0-13 7.6-24.2 18.6-29.5 2.5-8.7 4.1-14 4.1-14l535 4.6s1.1 3.7 2.8 10c10.4 5.5 17.4 16.4 17.4 28.9V-4c0 5.2-1.2 10.2-3.4 14.6 5.3 27 9.8 57.2 9.6 81.9-1 140.7-52.5 230.5-154.5 269.3zM324 822.4c0.2 0.1 5.4-0.3 13.9-1.1h-15.5c0.5 0.4 1.1 0.7 1.6 1.1zM287.8 679c0 20.3 0.3 41 2 60.3H720c10.1-16 16.2-35.8 16.2-60.3 0-103-35.9-170.4-107.7-202-11.6 33.1-50.7 49.4-117.4 49.1-66-0.3-104.7-16.6-115.9-49.1-71.6 31.7-107.4 99-107.4 202zM324-54.4c-0.5 0.3-1.1 0.7-1.6 1h15.3c-8.3-0.7-13.5-1.1-13.7-1z m186.1 230.7c-101.5-0.3-174.4-12.4-219-36.2 16 114.7 89.6 172 220.9 172S716.9 254.8 732.9 140c-45.1 24.5-119.4 36.6-222.8 36.3z"  horiz-adv-x="1024" />

    
    <glyph glyph-name="pen-nib-fill" unicode="&#59084;" d="M210.304-20.693333l249.429333 249.429333a85.333333 85.333333 0 1 1-60.330666 60.330667l-249.429334-249.429334-45.226666 45.226667c120.618667 140.8 165.888 296.704 226.218666 558.165333l271.530667 30.165334 241.365333-241.365334-30.165333-271.530666c-261.461333-60.330667-417.365333-105.6-558.122667-226.261334l-45.269333 45.226667zM708.096 808.96l270.805333-270.762667a21.333333 21.333333 0 0 0-11.818666-36.181333l-62.890667-9.813333-241.322667 241.322666 9.045334 63.36a21.333333 21.333333 0 0 0 36.181333 12.074667z"  horiz-adv-x="1024" />

    
    <glyph glyph-name="pen-nib-line" unicode="&#59085;" d="M708.096 851.626667l270.805333-270.762667a21.333333 21.333333 0 0 0-11.818666-36.181333l-62.890667-9.813334-241.322667 241.322667 9.045334 63.36a21.333333 21.333333 0 0 0 36.181333 12.074667zM196.053333 36.266667c158.805333 142.122667 341.12 184.661333 539.434667 235.52l19.029333 171.434666-183.338666 183.338667-171.434667-19.029333c-50.858667-198.314667-93.397333-380.586667-235.52-539.434667L104.704 127.573333c120.661333 140.8 165.973333 296.661333 226.261333 558.122667l271.530667 30.165333 241.365333-241.365333-30.165333-271.530667c-261.461333-60.330667-417.365333-105.6-558.122667-226.261333L196.053333 36.266667z m225.450667 257.28a85.333333 85.333333 0 1 0 120.661333 120.661333A85.333333 85.333333 0 0 0 421.546667 293.546667z"  horiz-adv-x="1024" />

    
    <glyph glyph-name="weather" unicode="&#59564;" d="M972.224153-128a255.289935 255.289935 0 0 1 50.845987 505.467872C1000.630146 554.981827 849.100184 692.276792 665.494231 692.276792c-199.025949 0-360.445908-161.371959-360.445908-360.429909a361.711908 361.711908 0 0 1 8.254997-76.94298A205.949948 205.949948 0 1 1 205.038348-128zM90.360377 356.275877a300.317924 300.317924 0 0 0 117.62697 23.788994h3.381999a456.303884 456.303884 0 0 0 405.361897 405.809897A357.255909 357.255909 0 0 1 358.315309 895.99974C160.427359 895.99974 0.0004 735.572781 0.0004 537.685831a356.598909 356.598909 0 0 1 58.941985-196.90995 302.850923 302.850923 0 0 0 31.417992 15.499996z"  horiz-adv-x="1227" />

    
    <glyph glyph-name="weather-day" unicode="&#59566;" d="M769.152 383.283C769.92 242.637 653.747 125.158 508.8 127.95c-139.34 2.688-252.134 118.041-250.086 259.225 1.996 136.039 112.793 252.16 256.972 251.29 143.053-0.87 254.08-117.658 253.466-255.18z m128.333-38.272c-9.498 0-18.97-0.025-28.467 0-18.919 0.077-34.407 14.72-35.15 33.152-0.793 19.687 12.673 35.738 32.103 36.864a545.246 545.246 0 0 0 64.359-0.025c18.432-1.101 32.128-17.844 31.232-36.762-0.87-18.15-16.026-32.998-34.1-33.229-9.984-0.102-19.993 0-29.977 0z m-767.488 0c-9.498 0-18.97-0.025-28.467 0-19.175 0.051-34.535 14.592-35.405 33.485-0.87 18.995 12.928 35.38 32 36.531 21.427 1.28 42.931 1.229 64.358 0 18.253-1.05 32.103-17.51 31.488-36.096-0.614-18.406-15.77-33.587-34.022-33.894-9.984-0.18-19.968-0.026-29.952-0.026z m86.86 364.058c12.621-0.026 20.865-3.482 27.674-10.24 13.594-13.491 27.136-27.008 40.602-40.602 13.542-13.696 13.798-35.225 0.717-49.126-13.056-13.875-34.944-15.207-48.999-2.048-14.925 13.977-29.44 28.467-43.417 43.443-10.24 10.982-11.904 24.422-5.735 38.093 6.119 13.542 17.357 20.045 29.159 20.48z m621.338-620.826c-0.46-12.544-7.142-23.808-20.94-29.875-13.978-6.17-27.341-3.84-38.4 6.58-14.413 13.593-28.34 27.698-42.061 41.983-13.415 14.003-12.698 36.173 1.024 49.485 13.721 13.312 35.814 13.184 49.536-0.41 13.593-13.465 27.11-27.033 40.627-40.601 6.784-6.81 10.163-15.079 10.214-27.162z m-617.472-30.438c-13.465 0.614-24.627 7.27-30.617 20.864-6.042 13.696-4.25 26.982 6.118 37.99 13.594 14.413 27.622 28.416 41.933 42.112 14.72 14.055 36.659 13.415 50.125-0.819 13.619-14.362 12.928-35.558-1.613-50.1-13.184-13.183-26.394-26.342-39.552-39.577-6.938-6.989-15.309-10.342-26.394-10.47z m328.423 709.35c0-9.497 0.05-18.97 0-28.467-0.154-20.198-15.54-35.763-35.252-35.686-19.712 0.076-34.944 15.59-35.046 35.89-0.077 18.817-0.102 37.633 0 56.449 0.102 20.198 15.54 35.712 35.226 35.66 19.712-0.05 34.918-15.59 35.046-35.865 0.077-9.318 0.026-18.637 0.026-27.98z m215.833-166.323c-14.669 0-27.008 8.115-32.512 21.402-5.478 13.26-2.611 28.108 7.475 38.297 13.236 13.363 26.368 26.829 39.808 39.987 16.077 15.719 39.527 14.746 53.197-1.92 11.213-13.644 10.394-33.868-2.022-46.438-13.799-13.978-27.725-27.827-41.651-41.677-6.63-6.63-14.464-9.651-24.295-9.651zM549.146-1.05c0-9.318 0.05-18.636 0-27.955-0.128-20.147-15.54-35.66-35.277-35.558-19.559 0.077-34.893 15.462-34.995 35.353-0.103 18.97-0.103 37.94 0 56.91 0.102 20.3 15.283 35.506 35.276 35.455 19.712-0.025 34.842-15.232 34.996-35.225 0.076-9.652 0-19.303 0-28.98z"  horiz-adv-x="1024" />

    


  </font>
</defs>
</svg>
